<svg data-v-423bf9ae="" xmlns="http://www.w3.org/2000/svg" viewBox="0 0 4889.453685797131 2951" class="iconAbove"><!----><!----><!----><g data-v-423bf9ae="" id="e4951740-3263-4a32-90ec-7bbc858891b5" fill="#fff" transform="matrix(4.709576222757963,0,0,4.709576222757963,2306.7598556701514,2877.359895623098)"><path d="M1.08 12.61L1.08 5.78L2.41 5.78L2.41 6.67L2.41 6.67Q2.68 6.19 3.16 5.91L3.16 5.91L3.16 5.91Q3.64 5.63 4.21 5.63L4.21 5.63L4.21 5.63Q4.90 5.63 5.42 5.96L5.42 5.96L5.42 5.96Q5.93 6.30 6.22 6.96L6.22 6.96L6.22 6.96Q6.58 6.31 7.14 5.97L7.14 5.97L7.14 5.97Q7.70 5.63 8.41 5.63L8.41 5.63L8.41 5.63Q9.24 5.63 9.78 6.02L9.78 6.02L9.78 6.02Q10.33 6.41 10.59 7.05L10.59 7.05L10.59 7.05Q10.86 7.70 10.86 8.48L10.86 8.48L10.86 12.61L9.51 12.61L9.51 8.63L9.51 8.63Q9.51 7.85 9.22 7.33L9.22 7.33L9.22 7.33Q8.93 6.82 8.22 6.82L8.22 6.82L8.22 6.82Q7.72 6.82 7.37 7.11L7.37 7.11L7.37 7.11Q7.01 7.39 6.82 7.85L6.82 7.85L6.82 7.85Q6.62 8.31 6.62 8.84L6.62 8.84L6.62 12.61L5.28 12.61L5.28 8.60L5.28 8.60Q5.28 7.82 5.00 7.32L5.00 7.32L5.00 7.32Q4.72 6.82 4.01 6.82L4.01 6.82L4.01 6.82Q3.52 6.82 3.16 7.12L3.16 7.12L3.16 7.12Q2.80 7.42 2.60 7.91L2.60 7.91L2.60 7.91Q2.41 8.40 2.41 8.96L2.41 8.96L2.41 12.61L1.08 12.61ZM12.78 4.37L12.78 2.95L14.21 2.95L14.21 4.37L12.78 4.37ZM12.83 12.61L12.83 5.78L14.15 5.78L14.15 12.61L12.83 12.61ZM16.31 12.61L16.31 5.78L17.62 5.78L17.62 6.78L17.62 6.78Q17.99 6.23 18.55 5.94L18.55 5.94L18.55 5.94Q19.10 5.65 19.74 5.65L19.74 5.65L19.74 5.65Q20.55 5.65 21.08 6.03L21.08 6.03L21.08 6.03Q21.62 6.42 21.86 7.06L21.86 7.06L21.86 7.06Q22.11 7.70 22.11 8.48L22.11 8.48L22.11 12.61L20.80 12.61L20.80 8.63L20.80 8.63Q20.80 7.86 20.45 7.35L20.45 7.35L20.45 7.35Q20.09 6.83 19.37 6.83L19.37 6.83L19.37 6.83Q18.58 6.83 18.10 7.37L18.10 7.37L18.10 7.37Q17.62 7.92 17.62 8.97L17.62 8.97L17.62 12.61L16.31 12.61ZM28.44 2.95L29.78 2.95L29.78 12.61L28.52 12.61L28.48 11.75L28.48 11.75Q28.13 12.24 27.60 12.49L27.60 12.49L27.60 12.49Q27.08 12.74 26.41 12.74L26.41 12.74L26.41 12.74Q25.53 12.74 24.88 12.26L24.88 12.26L24.88 12.26Q24.24 11.79 23.91 10.98L23.91 10.98L23.91 10.98Q23.57 10.17 23.57 9.19L23.57 9.19L23.57 9.19Q23.57 8.21 23.91 7.40L23.91 7.40L23.91 7.40Q24.24 6.59 24.88 6.11L24.88 6.11L24.88 6.11Q25.52 5.63 26.39 5.63L26.39 5.63L26.39 5.63Q27.04 5.63 27.57 5.88L27.57 5.88L27.57 5.88Q28.10 6.13 28.44 6.59L28.44 6.59L28.44 2.95ZM26.74 11.58L26.74 11.58Q27.36 11.58 27.76 11.26L27.76 11.26L27.76 11.26Q28.17 10.94 28.36 10.40L28.36 10.40L28.36 10.40Q28.55 9.86 28.55 9.19L28.55 9.19L28.55 9.19Q28.55 8.52 28.36 7.98L28.36 7.98L28.36 7.98Q28.17 7.44 27.76 7.12L27.76 7.12L27.76 7.12Q27.36 6.80 26.74 6.80L26.74 6.80L26.74 6.80Q26.13 6.80 25.72 7.13L25.72 7.13L25.72 7.13Q25.31 7.45 25.12 7.99L25.12 7.99L25.12 7.99Q24.92 8.53 24.92 9.19L24.92 9.19L24.92 9.19Q24.92 9.85 25.12 10.39L25.12 10.39L25.12 10.39Q25.31 10.94 25.72 11.26L25.72 11.26L25.72 11.26Q26.13 11.58 26.74 11.58L26.74 11.58ZM32.30 12.61L32.30 6.88L31.06 6.88L31.06 5.78L32.31 5.78L32.31 4.74L32.31 4.74Q32.31 4.12 32.58 3.68L32.58 3.68L32.58 3.68Q32.85 3.25 33.31 3.02L33.31 3.02L33.31 3.02Q33.76 2.80 34.31 2.80L34.31 2.80L34.31 2.80Q34.92 2.80 35.49 3.08L35.49 3.08L35.10 4.15L35.10 4.15Q34.73 3.96 34.43 3.96L34.43 3.96L34.43 3.96Q34.08 3.96 33.86 4.18L33.86 4.18L33.86 4.18Q33.65 4.40 33.65 4.85L33.65 4.85L33.65 5.78L35.44 5.78L35.44 6.88L33.65 6.88L33.65 12.61L32.30 12.61ZM38.84 12.75L38.84 12.75Q37.62 12.75 37.02 11.89L37.02 11.89L37.02 11.89Q36.42 11.04 36.42 9.57L36.42 9.57L36.42 5.78L37.76 5.78L37.76 9.63L37.76 9.63Q37.76 10.53 38.05 11.06L38.05 11.06L38.05 11.06Q38.34 11.59 39.10 11.59L39.10 11.59L39.10 11.59Q39.59 11.59 40.01 11.33L40.01 11.33L40.01 11.33Q40.43 11.07 40.68 10.54L40.68 10.54L40.68 10.54Q40.93 10.01 40.93 9.23L40.93 9.23L40.93 5.78L42.26 5.78L42.26 12.61L40.93 12.61L40.93 11.61L40.93 11.61Q40.63 12.11 40.07 12.43L40.07 12.43L40.07 12.43Q39.52 12.75 38.84 12.75L38.84 12.75ZM45.64 12.74L45.64 12.74Q44.97 12.74 44.67 12.37L44.67 12.37L44.67 12.37Q44.38 12.00 44.38 11.24L44.38 11.24L44.38 2.95L45.71 2.95L45.71 11.15L45.71 11.15Q45.71 11.27 45.81 11.42L45.81 11.42L45.81 11.42Q45.92 11.57 46.14 11.57L46.14 11.57L46.14 11.57Q46.45 11.57 46.71 11.51L46.71 11.51L46.71 12.61L46.71 12.61Q46.48 12.66 46.19 12.70L46.19 12.70L46.19 12.70Q45.90 12.74 45.64 12.74L45.64 12.74ZM49.36 12.74L49.36 12.74Q48.69 12.74 48.39 12.37L48.39 12.37L48.39 12.37Q48.10 12.00 48.10 11.24L48.10 11.24L48.10 2.95L49.42 2.95L49.42 11.15L49.42 11.15Q49.42 11.27 49.53 11.42L49.53 11.42L49.53 11.42Q49.64 11.57 49.86 11.57L49.86 11.57L49.86 11.57Q50.17 11.57 50.43 11.51L50.43 11.51L50.43 12.61L50.43 12.61Q50.20 12.66 49.91 12.70L49.91 12.70L49.91 12.70Q49.62 12.74 49.36 12.74L49.36 12.74ZM52.32 15.54L53.53 12.50L50.88 5.78L52.34 5.78L54.21 10.96L56.06 5.78L57.51 5.78L53.74 15.54L52.32 15.54Z"></path></g><!----><g data-v-423bf9ae="" id="4fb16511-f0f9-4382-970f-6259985edbbc" transform="matrix(5.6544443766276045,0,0,5.6544443766276045,-946.137250650364,-1951.9528140258822)" stroke="none" fill="#fff"><path d="M1030.8 609.6c-1.7-3.3-4.7-5.7-8.3-6.7-2.4-.6-54.8-14.5-122.7-11.5 3.6-12.7 6.3-24.7 8.4-35.6 9.5-48.9 8.4-84.9 8.3-86.5-.1-3.7-1.8-7.2-4.6-9.6-2.8-2.4-6.5-3.5-10.2-3-1.3.2-32 4.4-73.5 18.9-56.1 19.6-95.8 45.3-122.3 67.1-8.2-48.5-26.9-91-43.3-121.1-23.9-43.7-47.7-70.8-48.7-71.9-2.5-2.8-6-4.4-9.7-4.4h-.1c-3.7 0-7.1 1.5-9.6 4.2-1 1.1-25.4 27.7-50.2 70.9-27.6 48.1-40.9 91.3-46.9 126.2-41.8-36-89.5-57.7-124.1-70.1-43-15.3-75-19.7-76.4-19.9-3.7-.5-7.4.6-10.2 3-2.8 2.4-4.5 5.9-4.6 9.6-.1 1.5-1.1 37.6 8.3 86.5 2.1 10.8 4.9 22.8 8.4 35.5-67.4-2.8-119.2 10.9-121.6 11.5-3.6 1-6.6 3.4-8.3 6.7-1.7 3.3-1.9 7.1-.6 10.6.5 1.4 13.5 35.1 41.1 76.5 25.6 38.4 69.2 90.8 131.6 122.7 55.2 28.2 114.8 35 159.7 35 5.9 0 11.5-.1 16.8-.3 40.7-1.5 71.4-8 82.1-10.5 10.6 2.5 41.4 9 82.1 10.5 5.3.2 11 .3 16.8.3 44.9 0 104.6-6.9 159.7-35 62.4-31.9 106-84.3 131.6-122.7 27.6-41.4 40.6-75.1 41.1-76.5 1.8-3.2 1.6-7.1-.1-10.4zm-140.5-124c-.6 14.5-2.4 38.2-7.8 65.9-14.9 76.2-45.2 124.4-68.1 151.5-41.4 49-97.9 77.3-138 92.5-16.5 6.2-31.6 10.8-44.1 14.1 8.1-11.1 17.4-25.2 26.9-41.6 41.6-72.5 50.8-133.9 51.2-172.5.1-7-.1-14-.6-20.9 62.9-59.1 146.7-81.8 180.5-89zM519.4 593.4c.7-64.2 26.1-122 47.4-159.2 14-24.6 28.1-43.7 37.2-55 8.8 11.5 22.5 30.9 36.1 55.8 20.5 37.6 44.7 96 44.1 160.1-.7 64.2-26.1 122-47.4 159.2-14 24.6-28.1 43.7-37.2 55-23.3-30.6-81.2-116.6-80.2-215.9zM493.8 579c-.3 5-.5 9.8-.5 14.2-.7 70.1 25.5 133 47.6 173.5 9.3 17.1 18.6 31.6 26.6 43.1-45.6-11.9-127.7-41.3-183-106.7-41.4-49-59.9-109.4-68.1-151.5-5.4-27.8-7.2-51.4-7.8-65.9 34.6 7.3 121.8 31 185.2 93.3zm22.5 249c-77.6 2.8-131.4-15.8-163-31.9-57.1-29.2-97.6-77.7-121.4-113.3-15.7-23.5-26.6-44.6-32.7-57.8 20.9-4 61.5-9.9 108.3-6.8 12 33.6 30 69.8 57 101.8 45.2 53.5 106.2 84.1 149.4 100.3 6.7 2.5 13.1 4.8 19.3 6.8-5.4.4-11.1.7-16.9.9zm451.8-145.2c-43.2 64.5-89.9 97.2-121.4 113.3-57.1 29.2-120.2 33.5-163 31.9-6.2-.2-12.2-.6-17.9-1 6.1-2 12.5-4.2 19.1-6.7 43.2-16.2 104.2-46.8 149.4-100.3 27-32 45-68.2 57-101.8 47.3-3.2 88.4 2.7 109.4 6.8-6 13.1-16.8 34.2-32.6 57.8z"></path><ellipse transform="rotate(-67.5 601.782 529.926)" cx="601.8" cy="529.9" rx="20" ry="20"></ellipse><ellipse transform="rotate(-13.286 601.648 604.032)" cx="601.8" cy="604.1" rx="20" ry="20"></ellipse><ellipse transform="rotate(-13.286 601.646 678.219)" cx="601.8" cy="678.3" rx="20" ry="20"></ellipse></g><!----></svg>