
<svg width="100%" height="100%" id="svg" viewBox="0 0 1440 590" xmlns="http://www.w3.org/2000/svg" class="transition duration-300 ease-in-out delay-150"><defs><linearGradient id="gradient" x1="0%" y1="50%" x2="100%" y2="50%"><stop offset="5%" stop-color="#4b8dd2"></stop><stop offset="95%" stop-color="#8ED1FC"></stop></linearGradient></defs><path d="M 0,600 C 0,600 0,200 0,200 C 107.03349282296651,210.63157894736844 214.06698564593302,221.26315789473685 295,235 C 375.933014354067,248.73684210526315 430.76555023923436,265.57894736842104 527,261 C 623.2344497607656,256.42105263157896 760.8708133971294,230.42105263157893 877,214 C 993.1291866028706,197.57894736842107 1087.7511961722487,190.73684210526315 1178,190 C 1268.2488038277513,189.26315789473685 1354.1244019138758,194.63157894736844 1440,200 C 1440,200 1440,600 1440,600 Z" stroke="none" stroke-width="0" fill="url(#gradient)" fill-opacity="0.53" class="transition-all duration-300 ease-in-out delay-150 path-0"></path><defs><linearGradient id="gradient" x1="0%" y1="50%" x2="100%" y2="50%"><stop offset="5%" stop-color="#4b8dd2"></stop><stop offset="95%" stop-color="#8ED1FC"></stop></linearGradient></defs><path d="M 0,600 C 0,600 0,400 0,400 C 77.79904306220095,385.55023923444975 155.5980861244019,371.1004784688995 244,356 C 332.4019138755981,340.8995215311005 431.4066985645934,325.14832535885165 540,337 C 648.5933014354066,348.85167464114835 766.7751196172247,388.3062200956938 879,417 C 991.2248803827753,445.6937799043062 1097.4928229665072,463.62679425837325 1190,459 C 1282.5071770334928,454.37320574162675 1361.2535885167463,427.1866028708134 1440,400 C 1440,400 1440,600 1440,600 Z" stroke="none" stroke-width="0" fill="url(#gradient)" fill-opacity="1" class="transition-all duration-300 ease-in-out delay-150 path-1"></path></svg>