<svg xmlns="http://www.w3.org/2000/svg" version="1.1" xmlns:xlink="http://www.w3.org/1999/xlink" xmlns:svgjs="http://svgjs.com/svgjs" width="501" height="500"><svg xmlns="http://www.w3.org/2000/svg" version="1.1" viewBox="0 0 501 500"><path d="M 223.500 59.563 C 186.028 64.645, 149.456 80.661, 121.943 104.036 C 64.841 152.550, 39.848 223.930, 54.103 297.794 C 68.318 371.454, 127.313 433.206, 200.857 451.406 C 219.920 456.123, 223.518 456.500, 249.500 456.500 C 276.108 456.500, 279.782 456.097, 300.372 450.920 C 372.861 432.693, 430.531 371.778, 445.480 297.646 C 455.317 248.863, 446.855 198.423, 421.683 155.800 C 399.073 117.514, 360.320 85.117, 319.046 69.997 C 290.563 59.562, 253.412 55.505, 223.500 59.563 M 227 71.042 C 215.246 72.476, 200.731 75.816, 189.656 79.634 C 90.988 113.653, 38.878 219.176, 71.929 318.030 C 95.772 389.342, 162.737 440.704, 237.239 444.822 C 263.293 446.262, 285.803 443.446, 308.500 435.905 C 407.455 403.030, 460.693 297.173, 427.897 198.500 C 417.910 168.454, 402.184 143.790, 378.770 121.451 C 351.710 95.634, 318.131 78.700, 281.500 72.399 C 270.790 70.557, 237.724 69.733, 227 71.042 M 244.049 170.686 C 235.808 181.839, 230.356 193.592, 226.416 208.696 C 226.229 209.415, 223.389 208.057, 219.302 205.295 C 206.786 196.837, 187.432 189.445, 179.742 190.187 L 176.500 190.500 176.782 198 C 177.046 205.049, 178.013 212.219, 179.495 218.123 L 180.140 220.696 168.820 221.305 C 154.800 222.058, 150 223.301, 150 226.178 C 150 229.511, 157.914 243.445, 164.633 251.942 C 172.439 261.814, 181.279 269.053, 191.500 273.944 C 205.155 280.478, 220.258 282.724, 237.500 280.784 C 249.506 279.433, 249.850 279.433, 262.500 280.817 C 288.808 283.696, 311.657 276.412, 328.195 259.874 C 337.662 250.407, 349.908 231.250, 349.978 225.797 C 350.010 223.349, 344.462 222.019, 331.250 221.308 C 325.063 220.975, 320 220.432, 320 220.101 C 320 219.771, 320.675 215.973, 321.500 211.662 C 322.325 207.351, 323 200.714, 323 196.912 L 323 190 319.730 190 C 311.329 190, 291.245 197.797, 280.110 205.382 C 277.145 207.401, 274.652 208.929, 274.569 208.777 C 274.485 208.624, 273.614 205.350, 272.633 201.500 C 269.201 188.032, 255.926 164.862, 251.255 164.186 C 249.572 163.942, 247.953 165.403, 244.049 170.686 M 246.773 177.250 C 238.569 189.837, 234.739 198.763, 232.363 210.829 C 229.745 224.124, 232.382 239.853, 239.655 254.321 C 243.457 261.885, 249.112 271.009, 249.984 270.987 C 250.268 270.980, 252.355 268.168, 254.623 264.737 C 269.299 242.535, 272.916 221.663, 265.843 200 C 262.581 190.012, 252.945 172, 250.863 172 C 250.495 172, 248.655 174.363, 246.773 177.250 M 182.648 196.810 C 181.924 198.072, 183.929 211.183, 186 218.733 C 189.648 232.031, 194.537 240.533, 204 250.037 C 210.397 256.462, 214.479 259.587, 220.500 262.673 C 228.625 266.836, 240.759 271.608, 241.400 270.893 C 241.593 270.677, 239.625 266.811, 237.026 262.302 C 230.822 251.541, 227.217 240.340, 225.810 227.449 L 224.665 216.966 220.424 213.491 C 215.548 209.496, 203.465 202.781, 197.127 200.545 C 188.839 197.621, 183.041 196.125, 182.648 196.810 M 310.500 197.922 C 297.585 201.753, 287.983 206.596, 279.250 213.684 L 275 217.134 275 224.111 C 275 227.949, 274.272 234.106, 273.382 237.794 C 271.766 244.489, 264.125 261.554, 259.946 267.802 L 257.738 271.104 260.619 270.426 C 266.788 268.976, 278.630 263.467, 285.601 258.804 C 299.546 249.477, 308.406 236.981, 313.474 219.493 C 315.720 211.743, 318.040 195.866, 316.897 196.071 C 316.679 196.110, 313.800 196.943, 310.500 197.922 M 247.200 203.200 C 245.542 204.858, 245.696 208.503, 247.487 209.989 C 251.264 213.124, 257.124 207.264, 253.989 203.487 C 252.503 201.696, 248.858 201.542, 247.200 203.200 M 247.750 220.080 C 244.190 222.153, 246.220 228, 250.500 228 C 254.711 228, 256.449 223.592, 253.429 220.571 C 251.621 218.764, 250.219 218.642, 247.750 220.080 M 160.250 227.723 C 158.463 227.945, 157 228.455, 157 228.855 C 157 231.123, 168.287 247.349, 174.181 253.554 C 182.561 262.376, 191.206 268.169, 200.922 271.473 C 209.162 274.276, 222.402 276.306, 229.050 275.787 L 233.500 275.439 230.500 274.165 C 207.699 264.485, 194.458 252.947, 185.844 235.250 L 181.829 227 172.664 227.160 C 167.624 227.248, 162.037 227.502, 160.250 227.723 M 314.193 234.218 C 306.898 250.458, 296.283 260.829, 277.500 270.067 L 265.500 275.969 271.178 275.984 C 286.174 276.026, 302.888 271.520, 313.217 264.651 C 316.361 262.560, 322.211 257.349, 326.217 253.072 C 333.370 245.433, 343.909 229.576, 342.662 228.329 C 342.313 227.980, 336.509 227.506, 329.764 227.275 L 317.500 226.856 314.193 234.218 M 247.571 237.571 C 244.551 240.592, 246.289 245, 250.500 245 C 254.711 245, 256.449 240.592, 253.429 237.571 C 252.564 236.707, 251.246 236, 250.500 236 C 249.754 236, 248.436 236.707, 247.571 237.571 M 270 297.706 C 266.170 299.106, 264 302.350, 264 306.674 C 264 310.835, 263.883 311, 260.934 311 C 258.178 311, 257.899 311.279, 258.184 313.750 C 258.432 315.910, 259.090 316.568, 261.250 316.816 L 264 317.133 264 330.066 L 264 343 267.500 343 L 271 343 271 330.060 L 271 317.121 274.750 316.810 C 278.006 316.541, 278.542 316.138, 278.816 313.750 C 279.116 311.143, 278.918 311, 275.006 311 L 270.879 311 271.190 307.250 C 271.470 303.861, 271.779 303.496, 274.400 303.461 C 278.138 303.410, 279.979 299.595, 277.028 298.015 C 275.001 296.930, 272.432 296.817, 270 297.706 M 173 301.500 C 173 304.833, 173.167 305, 176.500 305 C 179.833 305, 180 304.833, 180 301.500 C 180 298.167, 179.833 298, 176.500 298 C 173.167 298, 173 298.167, 173 301.500 M 246 305.829 L 246 313.784 242.289 311.892 C 237.757 309.582, 235.792 309.530, 231.417 311.606 C 219.083 317.459, 221.245 341.079, 234.340 343.536 C 237.013 344.037, 239.046 343.692, 241.990 342.235 C 245.096 340.698, 246 340.561, 246 341.625 C 246 342.531, 247.200 343, 249.519 343 L 253.038 343 252.769 320.750 L 252.500 298.500 249.250 298.187 L 246 297.873 246 305.829 M 319.667 298.667 C 318.792 299.541, 318.994 335.763, 319.891 338.985 C 321.411 344.442, 331 345.794, 331 340.550 C 331 338.811, 330.373 338.050, 328.750 337.820 C 326.514 337.502, 326.498 337.377, 326.229 317.750 L 325.958 298 323.146 298 C 321.599 298, 320.033 298.300, 319.667 298.667 M 337.230 319.648 L 337.500 341.425 340.069 342.866 C 343.796 344.957, 348 343.692, 348 340.481 C 348 338.676, 347.461 338, 346.021 338 C 344.125 338, 344.031 337.172, 343.771 318.250 L 343.500 298.500 340.230 298.185 L 336.961 297.870 337.230 319.648 M 131 310.672 C 130.175 310.996, 128.713 311.947, 127.750 312.785 C 126.174 314.158, 126 314.145, 126 312.655 C 126 311.430, 125.090 311, 122.500 311 L 119 311 119 327 L 119 343 122.500 343 L 126 343 126 332.434 C 126 326.623, 126.477 320.977, 127.061 319.886 C 128.723 316.781, 132.806 315.643, 135.635 317.496 C 137.904 318.983, 138 319.533, 138 331.023 L 138 343 141.412 343 L 144.823 343 145.162 332.025 C 145.459 322.382, 145.761 320.790, 147.653 318.900 C 149.996 316.560, 154.455 316.057, 156.325 317.922 C 157.052 318.648, 157.627 323.651, 157.834 331.047 L 158.167 343 161.665 343 L 165.163 343 164.832 330.569 C 164.545 319.843, 164.214 317.752, 162.410 315.319 C 158.054 309.443, 150.328 308.581, 145.479 313.430 L 143.182 315.727 140.841 313.388 C 138.420 310.968, 133.621 309.644, 131 310.672 M 202.021 311.078 C 200.657 311.643, 198.744 312.826, 197.771 313.708 C 196.127 315.195, 196 315.151, 196 313.092 C 196 311.191, 195.534 310.918, 192.750 311.187 L 189.500 311.500 189.225 327.250 L 188.949 343 192.386 343 L 195.823 343 196.162 332.102 C 196.560 319.276, 197.759 317, 204.120 317 C 209.334 317, 210 318.693, 210 331.934 L 210 343 213.500 343 L 217 343 217 331.968 C 217 320.406, 215.917 315.960, 212.322 312.762 C 209.810 310.527, 205.179 309.770, 202.021 311.078 M 173.667 311.667 C 173.300 312.033, 173 319.233, 173 327.667 L 173 343 176.500 343 L 180 343 180 327 L 180 311 177.167 311 C 175.608 311, 174.033 311.300, 173.667 311.667 M 283 322.469 C 283 335.957, 284.235 340.036, 289.076 342.539 C 292.847 344.489, 298.269 343.971, 301.124 341.388 C 302.852 339.824, 303 339.820, 303 341.345 C 303 342.570, 303.910 343, 306.500 343 L 310 343 310 326.937 L 310 310.873 306.750 311.187 L 303.500 311.500 303 322.842 C 302.541 333.247, 302.305 334.342, 300.139 336.092 C 298.841 337.141, 296.816 337.993, 295.639 337.985 C 291 337.951, 290.528 336.764, 290 323.789 L 289.500 311.500 286.250 311.187 L 283 310.873 283 322.469 M 350 311.448 C 350 311.695, 352.702 318.813, 356.004 327.267 L 362.007 342.637 359.504 348.799 C 356.286 356.716, 356.331 357.191, 360.250 356.813 L 363.500 356.500 372.188 334 L 380.876 311.500 377.811 311.177 C 376.125 311, 374.401 311.225, 373.979 311.677 C 373.558 312.130, 371.537 317.225, 369.488 323 C 367.439 328.775, 365.652 333.627, 365.516 333.783 C 365.289 334.041, 364.404 331.744, 358.767 316.250 C 356.969 311.309, 356.654 311, 353.428 311 C 351.543 311, 350 311.202, 350 311.448 M 233.427 318.309 C 230.237 321.053, 229.059 328.882, 231.222 332.970 C 233.034 336.395, 237.043 338.457, 240.301 337.639 C 247.342 335.872, 248.137 320.206, 241.343 317.110 C 237.824 315.507, 236.441 315.716, 233.427 318.309" stroke="none" fill="#34a4e4" fill-rule="evenodd"></path><path d="M 0 250.002 L 0 500.004 250.250 499.752 L 500.500 499.500 500.752 249.750 L 501.004 0 250.502 0 L 0 0 0 250.002 M 0.492 250.500 C 0.492 388, 0.608 444.101, 0.750 375.170 C 0.892 306.238, 0.892 193.738, 0.750 125.170 C 0.608 56.601, 0.492 113, 0.492 250.500 M 223.500 59.563 C 186.028 64.645, 149.456 80.661, 121.943 104.036 C 64.841 152.550, 39.848 223.930, 54.103 297.794 C 68.318 371.454, 127.313 433.206, 200.857 451.406 C 219.920 456.123, 223.518 456.500, 249.500 456.500 C 276.108 456.500, 279.782 456.097, 300.372 450.920 C 372.861 432.693, 430.531 371.778, 445.480 297.646 C 455.317 248.863, 446.855 198.423, 421.683 155.800 C 399.073 117.514, 360.320 85.117, 319.046 69.997 C 290.563 59.562, 253.412 55.505, 223.500 59.563 M 227 71.042 C 215.246 72.476, 200.731 75.816, 189.656 79.634 C 90.988 113.653, 38.878 219.176, 71.929 318.030 C 95.772 389.342, 162.737 440.704, 237.239 444.822 C 263.293 446.262, 285.803 443.446, 308.500 435.905 C 407.455 403.030, 460.693 297.173, 427.897 198.500 C 417.910 168.454, 402.184 143.790, 378.770 121.451 C 351.710 95.634, 318.131 78.700, 281.500 72.399 C 270.790 70.557, 237.724 69.733, 227 71.042 M 244.049 170.686 C 235.808 181.839, 230.356 193.592, 226.416 208.696 C 226.229 209.415, 223.389 208.057, 219.302 205.295 C 206.786 196.837, 187.432 189.445, 179.742 190.187 L 176.500 190.500 176.782 198 C 177.046 205.049, 178.013 212.219, 179.495 218.123 L 180.140 220.696 168.820 221.305 C 154.800 222.058, 150 223.301, 150 226.178 C 150 229.511, 157.914 243.445, 164.633 251.942 C 172.439 261.814, 181.279 269.053, 191.500 273.944 C 205.155 280.478, 220.258 282.724, 237.500 280.784 C 249.506 279.433, 249.850 279.433, 262.500 280.817 C 288.808 283.696, 311.657 276.412, 328.195 259.874 C 337.662 250.407, 349.908 231.250, 349.978 225.797 C 350.010 223.349, 344.462 222.019, 331.250 221.308 C 325.063 220.975, 320 220.432, 320 220.101 C 320 219.771, 320.675 215.973, 321.500 211.662 C 322.325 207.351, 323 200.714, 323 196.912 L 323 190 319.730 190 C 311.329 190, 291.245 197.797, 280.110 205.382 C 277.145 207.401, 274.652 208.929, 274.569 208.777 C 274.485 208.624, 273.614 205.350, 272.633 201.500 C 269.201 188.032, 255.926 164.862, 251.255 164.186 C 249.572 163.942, 247.953 165.403, 244.049 170.686 M 246.773 177.250 C 238.569 189.837, 234.739 198.763, 232.363 210.829 C 229.745 224.124, 232.382 239.853, 239.655 254.321 C 243.457 261.885, 249.112 271.009, 249.984 270.987 C 250.268 270.980, 252.355 268.168, 254.623 264.737 C 269.299 242.535, 272.916 221.663, 265.843 200 C 262.581 190.012, 252.945 172, 250.863 172 C 250.495 172, 248.655 174.363, 246.773 177.250 M 182.648 196.810 C 181.924 198.072, 183.929 211.183, 186 218.733 C 189.648 232.031, 194.537 240.533, 204 250.037 C 210.397 256.462, 214.479 259.587, 220.500 262.673 C 228.625 266.836, 240.759 271.608, 241.400 270.893 C 241.593 270.677, 239.625 266.811, 237.026 262.302 C 230.822 251.541, 227.217 240.340, 225.810 227.449 L 224.665 216.966 220.424 213.491 C 215.548 209.496, 203.465 202.781, 197.127 200.545 C 188.839 197.621, 183.041 196.125, 182.648 196.810 M 310.500 197.922 C 297.585 201.753, 287.983 206.596, 279.250 213.684 L 275 217.134 275 224.111 C 275 227.949, 274.272 234.106, 273.382 237.794 C 271.766 244.489, 264.125 261.554, 259.946 267.802 L 257.738 271.104 260.619 270.426 C 266.788 268.976, 278.630 263.467, 285.601 258.804 C 299.546 249.477, 308.406 236.981, 313.474 219.493 C 315.720 211.743, 318.040 195.866, 316.897 196.071 C 316.679 196.110, 313.800 196.943, 310.500 197.922 M 247.200 203.200 C 245.542 204.858, 245.696 208.503, 247.487 209.989 C 251.264 213.124, 257.124 207.264, 253.989 203.487 C 252.503 201.696, 248.858 201.542, 247.200 203.200 M 247.750 220.080 C 244.190 222.153, 246.220 228, 250.500 228 C 254.711 228, 256.449 223.592, 253.429 220.571 C 251.621 218.764, 250.219 218.642, 247.750 220.080 M 160.250 227.723 C 158.463 227.945, 157 228.455, 157 228.855 C 157 231.123, 168.287 247.349, 174.181 253.554 C 182.561 262.376, 191.206 268.169, 200.922 271.473 C 209.162 274.276, 222.402 276.306, 229.050 275.787 L 233.500 275.439 230.500 274.165 C 207.699 264.485, 194.458 252.947, 185.844 235.250 L 181.829 227 172.664 227.160 C 167.624 227.248, 162.037 227.502, 160.250 227.723 M 314.193 234.218 C 306.898 250.458, 296.283 260.829, 277.500 270.067 L 265.500 275.969 271.178 275.984 C 286.174 276.026, 302.888 271.520, 313.217 264.651 C 316.361 262.560, 322.211 257.349, 326.217 253.072 C 333.370 245.433, 343.909 229.576, 342.662 228.329 C 342.313 227.980, 336.509 227.506, 329.764 227.275 L 317.500 226.856 314.193 234.218 M 247.571 237.571 C 244.551 240.592, 246.289 245, 250.500 245 C 254.711 245, 256.449 240.592, 253.429 237.571 C 252.564 236.707, 251.246 236, 250.500 236 C 249.754 236, 248.436 236.707, 247.571 237.571 M 270 297.706 C 266.170 299.106, 264 302.350, 264 306.674 C 264 310.835, 263.883 311, 260.934 311 C 258.178 311, 257.899 311.279, 258.184 313.750 C 258.432 315.910, 259.090 316.568, 261.250 316.816 L 264 317.133 264 330.066 L 264 343 267.500 343 L 271 343 271 330.060 L 271 317.121 274.750 316.810 C 278.006 316.541, 278.542 316.138, 278.816 313.750 C 279.116 311.143, 278.918 311, 275.006 311 L 270.879 311 271.190 307.250 C 271.470 303.861, 271.779 303.496, 274.400 303.461 C 278.138 303.410, 279.979 299.595, 277.028 298.015 C 275.001 296.930, 272.432 296.817, 270 297.706 M 173 301.500 C 173 304.833, 173.167 305, 176.500 305 C 179.833 305, 180 304.833, 180 301.500 C 180 298.167, 179.833 298, 176.500 298 C 173.167 298, 173 298.167, 173 301.500 M 246 305.829 L 246 313.784 242.289 311.892 C 237.757 309.582, 235.792 309.530, 231.417 311.606 C 219.083 317.459, 221.245 341.079, 234.340 343.536 C 237.013 344.037, 239.046 343.692, 241.990 342.235 C 245.096 340.698, 246 340.561, 246 341.625 C 246 342.531, 247.200 343, 249.519 343 L 253.038 343 252.769 320.750 L 252.500 298.500 249.250 298.187 L 246 297.873 246 305.829 M 319.667 298.667 C 318.792 299.541, 318.994 335.763, 319.891 338.985 C 321.411 344.442, 331 345.794, 331 340.550 C 331 338.811, 330.373 338.050, 328.750 337.820 C 326.514 337.502, 326.498 337.377, 326.229 317.750 L 325.958 298 323.146 298 C 321.599 298, 320.033 298.300, 319.667 298.667 M 337.230 319.648 L 337.500 341.425 340.069 342.866 C 343.796 344.957, 348 343.692, 348 340.481 C 348 338.676, 347.461 338, 346.021 338 C 344.125 338, 344.031 337.172, 343.771 318.250 L 343.500 298.500 340.230 298.185 L 336.961 297.870 337.230 319.648 M 131 310.672 C 130.175 310.996, 128.713 311.947, 127.750 312.785 C 126.174 314.158, 126 314.145, 126 312.655 C 126 311.430, 125.090 311, 122.500 311 L 119 311 119 327 L 119 343 122.500 343 L 126 343 126 332.434 C 126 326.623, 126.477 320.977, 127.061 319.886 C 128.723 316.781, 132.806 315.643, 135.635 317.496 C 137.904 318.983, 138 319.533, 138 331.023 L 138 343 141.412 343 L 144.823 343 145.162 332.025 C 145.459 322.382, 145.761 320.790, 147.653 318.900 C 149.996 316.560, 154.455 316.057, 156.325 317.922 C 157.052 318.648, 157.627 323.651, 157.834 331.047 L 158.167 343 161.665 343 L 165.163 343 164.832 330.569 C 164.545 319.843, 164.214 317.752, 162.410 315.319 C 158.054 309.443, 150.328 308.581, 145.479 313.430 L 143.182 315.727 140.841 313.388 C 138.420 310.968, 133.621 309.644, 131 310.672 M 202.021 311.078 C 200.657 311.643, 198.744 312.826, 197.771 313.708 C 196.127 315.195, 196 315.151, 196 313.092 C 196 311.191, 195.534 310.918, 192.750 311.187 L 189.500 311.500 189.225 327.250 L 188.949 343 192.386 343 L 195.823 343 196.162 332.102 C 196.560 319.276, 197.759 317, 204.120 317 C 209.334 317, 210 318.693, 210 331.934 L 210 343 213.500 343 L 217 343 217 331.968 C 217 320.406, 215.917 315.960, 212.322 312.762 C 209.810 310.527, 205.179 309.770, 202.021 311.078 M 173.667 311.667 C 173.300 312.033, 173 319.233, 173 327.667 L 173 343 176.500 343 L 180 343 180 327 L 180 311 177.167 311 C 175.608 311, 174.033 311.300, 173.667 311.667 M 283 322.469 C 283 335.957, 284.235 340.036, 289.076 342.539 C 292.847 344.489, 298.269 343.971, 301.124 341.388 C 302.852 339.824, 303 339.820, 303 341.345 C 303 342.570, 303.910 343, 306.500 343 L 310 343 310 326.937 L 310 310.873 306.750 311.187 L 303.500 311.500 303 322.842 C 302.541 333.247, 302.305 334.342, 300.139 336.092 C 298.841 337.141, 296.816 337.993, 295.639 337.985 C 291 337.951, 290.528 336.764, 290 323.789 L 289.500 311.500 286.250 311.187 L 283 310.873 283 322.469 M 350 311.448 C 350 311.695, 352.702 318.813, 356.004 327.267 L 362.007 342.637 359.504 348.799 C 356.286 356.716, 356.331 357.191, 360.250 356.813 L 363.500 356.500 372.188 334 L 380.876 311.500 377.811 311.177 C 376.125 311, 374.401 311.225, 373.979 311.677 C 373.558 312.130, 371.537 317.225, 369.488 323 C 367.439 328.775, 365.652 333.627, 365.516 333.783 C 365.289 334.041, 364.404 331.744, 358.767 316.250 C 356.969 311.309, 356.654 311, 353.428 311 C 351.543 311, 350 311.202, 350 311.448 M 233.427 318.309 C 230.237 321.053, 229.059 328.882, 231.222 332.970 C 233.034 336.395, 237.043 338.457, 240.301 337.639 C 247.342 335.872, 248.137 320.206, 241.343 317.110 C 237.824 315.507, 236.441 315.716, 233.427 318.309" stroke="none" fill="#043dbc" fill-rule="evenodd"></path></svg><style>@media (prefers-color-scheme: light) { :root { filter: none; } }
</style></svg>